<svg width="48" height="44" viewBox="0 0 48 44" fill="none" xmlns="http://www.w3.org/2000/svg">
<path fill="currentColor" stroke-width="0.6" d="M42.6,34l-6.8-6.8l-5.2-2.1c1.7-2.5,2.7-5.4,2.7-8.4C33.3,8.6,26.8,2,18.7,2C10.6,2,4,8.6,4,16.7
	c0,8.1,6.6,14.7,14.7,14.7c3,0,6-0.9,8.5-2.7l2.1,5.2l6.8,6.8c0.4,0.4,0.9,0.8,1.5,1c0.6,0.2,1.2,0.4,1.8,0.4s1.2-0.1,1.8-0.4
	s1.1-0.6,1.5-1c0.4-0.4,0.8-0.9,1-1.5s0.4-1.2,0.4-1.8c0-0.6-0.1-1.2-0.4-1.8C43.4,34.9,43.1,34.4,42.6,34z M6.7,16.7
	c0-6.6,5.4-12,12-12c6.6,0,12,5.4,12,12c0,6.6-5.4,12-12,12C12,28.7,6.7,23.3,6.7,16.7z M40.7,38.7c-0.4,0.4-0.9,0.6-1.4,0.6
	c-0.5,0-1-0.2-1.4-0.6l-6.4-6.4l-2-4.8l4.8,2l6.4,6.4c0.4,0.4,0.6,0.9,0.6,1.4C41.3,37.8,41.1,38.3,40.7,38.7z"/>
</svg>
