<svg width="48" height="44" viewBox="0 0 48 44" fill="none" xmlns="http://www.w3.org/2000/svg">
<path fill="currentColor" stroke-width="0.6" d="M40,11.7H19.2v12.1H17v-4.1c0-2.3-0.9-4.6-2.6-6.2c-1.6-1.6-3.9-2.6-6.2-2.6h-5V4.5H0v34.4h3.2v-4.8l41.6,0.3v4.4H48V19.7
	c0-2.1-0.8-4.2-2.3-5.7C44.2,12.5,42.1,11.7,40,11.7z M3.2,14.1h5c1.5,0,2.9,0.6,3.9,1.6c1,1,1.6,2.5,1.6,3.9v4.1H3.2V14.1z
	 M44.8,31.3L3.2,30.9v-4h41.6V31.3z M44.8,23.8H22.4v-8.9H40c1.3,0,2.5,0.5,3.4,1.4c0.9,0.9,1.4,2.1,1.4,3.4V23.8z"/>
</svg>
